<?xml version="1.0" encoding="utf-8"?>
<!-- Generator: Adobe Illustrator 24.3.0, SVG Export Plug-In . SVG Version: 6.00 Build 0)  -->
<svg version="1.1" id="Layer_1" xmlns="http://www.w3.org/2000/svg" xmlns:xlink="http://www.w3.org/1999/xlink" x="0px" y="0px"
	 viewBox="0 0 280 50" style="enable-background:new 0 0 280 50;" xml:space="preserve">
<style type="text/css">
	.st0{fill:#FFFFFF;}
</style>
<g>
	<path class="st0" d="M10.3,12.6v32.5L16,49v0.3H1.4V49l5.7-3.9V9L0.8,1.8h9l31.5,35.8V5.9L35.5,2V1.8h14.6V2l-5.7,3.9v43.9H43
		L10.3,12.6z"/>
	<path class="st0" d="M60.1,48c-2.5-1.4-4.4-3.3-5.9-5.9c-1.5-2.6-2.2-5.5-2.2-8.9s0.7-6.4,2.2-9.1c1.5-2.6,3.5-4.7,5.9-6.2
		c2.5-1.5,5.1-2.2,8-2.2s5.5,0.7,8,2c2.5,1.4,4.5,3.3,5.9,5.9c1.5,2.6,2.2,5.5,2.2,8.9s-0.7,6.4-2.2,9.1c-1.5,2.6-3.5,4.7-5.9,6.2
		c-2.5,1.5-5.1,2.2-8,2.2S62.6,49.3,60.1,48z M60,39.7c0.9,2.3,2.1,4.2,3.7,5.5s3.2,2,5.1,2c1.8,0,3.4-0.5,4.7-1.6
		c1.3-1.1,2.3-2.6,3-4.6s1.1-4.4,1.1-7.2s-0.5-5.4-1.4-7.7s-2.1-4.2-3.7-5.5s-3.3-2-5.1-2c-1.8,0-3.4,0.5-4.7,1.6s-2.3,2.6-3,4.6
		s-1.1,4.4-1.1,7.2S59.1,37.4,60,39.7z"/>
	<path class="st0" d="M86.4,49l5.4-4V21.4L87,19.1v-0.3l11-2.7v5.2c3.4-3.7,7.2-5.5,11.3-5.5v6.9c-1.7-0.7-3.3-1-4.8-1
		c-2.2,0-4.4,0.7-6.5,2.2V45l6.5,4v0.3H86.4V49z"/>
	<path class="st0" d="M111.4,49l5.4-4V21.4l-4.8-2.3v-0.3l11.1-2.6v4.3c3.3-3.1,6.7-4.6,10.3-4.6c1.9,0,3.5,0.5,4.9,1.5
		s2.4,2.3,3.1,4c3.7-3.7,7.5-5.5,11.2-5.5c1.9,0,3.5,0.5,4.8,1.4c1.4,0.9,2.4,2.2,3.1,3.8c0.7,1.6,1.1,3.5,1.1,5.6V45l5.3,4v0.3H150
		V49l5.3-4V27c0-4.6-1.8-6.9-5.4-6.9c-1.1,0-2.4,0.3-3.8,0.8c-1.4,0.5-2.8,1.4-4.2,2.4c0.2,1.1,0.3,2.2,0.3,3.2V45l5.4,4v0.3h-16.9
		V49l5.3-4V27c0-4.6-1.8-6.9-5.4-6.9c-1,0-2.2,0.2-3.6,0.7c-1.3,0.5-2.7,1.3-4,2.3V45l5.3,4v0.3h-16.9L111.4,49L111.4,49z"/>
	<path class="st0" d="M174.4,48.8c-1.5-0.8-2.6-1.8-3.5-3.2s-1.3-2.9-1.3-4.6c0-2.4,0.9-4.3,2.6-5.8c1.8-1.5,4.6-2.7,8.4-3.6l8.4-2
		v-3.4c0-2.5-0.6-4.5-1.7-5.8c-1.1-1.3-2.6-2-4.6-2c-1.9,0-3.9,0.7-5.8,2.1c-1.9,1.4-3.9,3.5-6,6.3h-0.3v-8.4
		c1.8-0.7,3.9-1.3,6.3-1.9c2.4-0.5,4.5-0.8,6.3-0.8c3.8,0,6.8,0.8,8.9,2.5c2.1,1.7,3.2,4.1,3.2,7.3V45l4.8,4v0.3H189V45
		c-1.3,1.5-2.8,2.7-4.5,3.6c-1.7,0.9-3.4,1.4-5.2,1.4C177.6,50,175.9,49.6,174.4,48.8z M189.1,42.6V32.4l-6.8,1.6
		c-1.9,0.5-3.4,1.2-4.5,2.3c-1,1.1-1.6,2.5-1.6,4c0,1,0.2,1.9,0.7,2.7s1.1,1.5,1.9,1.9c0.8,0.5,1.7,0.7,2.7,0.7
		C183.7,45.7,186.2,44.6,189.1,42.6z"/>
	<path class="st0" d="M243.5,49l5.4-3.6l-5.8-11.3h-19l-4.9,11.2l5.2,3.7v0.3h-13.1V49l4.6-3.9l15.6-35.7l-2.9-6.2l5.8-3.3
		l21.8,45.2L261,49v0.3h-17.5V49z M241.7,31.1L233.1,13l-7.7,18.1H241.7z"/>
	<path class="st0" d="M261.2,49l5.7-3.9V5.9L261.2,2V1.8h18.1V2l-5.7,3.9v39.3l5.7,3.9v0.3h-18.1V49z"/>
</g>
</svg>
